<?xml version="1.0" encoding="utf-8"?>
<!-- Generator: Adobe Illustrator 23.0.2, SVG Export Plug-In . SVG Version: 6.00 Build 0)  -->
<svg version="1.1" id="VP_icon" xmlns="http://www.w3.org/2000/svg" xmlns:xlink="http://www.w3.org/1999/xlink"
	 viewBox="0 0 49.75 21.54" style="enable-background:new 0 0 49.75 21.54;" xml:space="preserve">
<g fill="" stroke="none">
	<path d="M45.72,19.42c0,0.54,0,1.02,0,1.54c-0.78,0-1.54,0-2.34,0c0-0.49,0-0.99,0-1.56c-0.2,0-0.36,0-0.52,0
		c-1.92,0-3.83,0-5.75,0.01c-0.24,0-0.5,0.05-0.73,0.13c-2.31,0.87-4.62,0.87-6.92-0.01c-0.2-0.08-0.42-0.12-0.63-0.12
		c-7.3-0.01-14.6-0.01-21.89,0c-0.11,0-0.23,0.01-0.41,0.02c0,0.52,0,1.02,0,1.55c-0.81,0-1.55,0-2.36,0c0-0.49,0-1,0-1.57
		c-0.29,0-0.51,0.01-0.74,0c-1.46-0.04-2.47-1.01-2.47-2.46c-0.02-4.22-0.02-8.43,0-12.65c0.01-1.5,1.05-2.45,2.63-2.45
		c6.8,0,13.6,0,20.39,0c1.58,0,3.17,0.01,4.75-0.01c0.26,0,0.53-0.05,0.77-0.14c2.28-0.85,4.55-0.86,6.83-0.01
		c0.26,0.1,0.55,0.15,0.82,0.15c3,0.01,6,0.01,9,0.01c1.83,0,2.76,0.94,2.76,2.78c0,3.98,0,7.96,0,11.95c0,1.91-0.88,2.8-2.81,2.83
		C46.01,19.4,45.89,19.41,45.72,19.42z M27.76,17.84c-2.3-1.89-3.57-4.26-3.58-7.2c-0.01-2.96,1.28-5.34,3.72-7.21
		c-0.29-0.01-0.45-0.03-0.61-0.03c-7.86,0-15.73,0-23.59,0c-0.94,0-1.18,0.24-1.18,1.18c0,4,0,8,0,12c0,1.05,0.21,1.26,1.25,1.26
		c7.81,0,15.63,0,23.44,0C27.4,17.84,27.58,17.84,27.76,17.84z M40.96,10.6c-0.01-4.42-3.59-8-8.01-8c-4.44,0-8.03,3.59-8.03,8.03
		c0.01,4.42,3.59,8,8.01,8C37.38,18.64,40.97,15.05,40.96,10.6z M37.99,17.8c0.26,0.02,0.4,0.03,0.54,0.03c2.58,0,5.16,0,7.74,0
		c0.81,0,1.08-0.27,1.08-1.07c0-4.1,0-8.19,0-12.29c0-0.8-0.28-1.07-1.09-1.07c-2.58,0-5.16,0-7.74,0c-0.14,0-0.28,0.02-0.54,0.04
		c2.43,1.85,3.71,4.22,3.71,7.16C41.71,13.56,40.43,15.94,37.99,17.8z"/>
	<path d="M17.7,5.86c0,0.25,0,0.47,0,0.71c-4.51,0-9,0-13.51,0c0-0.25,0-0.47,0-0.71C8.7,5.86,13.19,5.86,17.7,5.86z"/>
	<path d="M17.7,7.46c0,0.27,0,0.48,0,0.71c-4.51,0-9,0-13.51,0c0-0.25,0-0.47,0-0.71C8.7,7.46,13.19,7.46,17.7,7.46z"/>
	<path d="M17.7,9.06c0,0.26,0,0.48,0,0.71c-4.51,0-9,0-13.51,0c0-0.24,0-0.46,0-0.71C8.7,9.06,13.18,9.06,17.7,9.06z"/>
	<path d="M17.7,10.68c0,0.22,0,0.43,0,0.68c-4.49,0-8.99,0-13.51,0c0-0.22,0-0.43,0-0.68C8.68,10.68,13.18,10.68,17.7,10.68z"/>
	<path d="M4.18,12.97c0-0.25,0-0.47,0-0.71c4.51,0,8.99,0,13.51,0c0,0.23,0,0.45,0,0.71C13.2,12.97,8.71,12.97,4.18,12.97z"/>
	<path d="M17.7,13.88c0,0.22,0,0.43,0,0.68c-4.49,0-8.99,0-13.51,0c0-0.22,0-0.43,0-0.68C8.68,13.88,13.18,13.88,17.7,13.88z"/>
	<path d="M4.19,16.16c0-0.22,0-0.43,0-0.68c4.49,0,8.99,0,13.51,0c0,0.22,0,0.43,0,0.68C13.21,16.16,8.71,16.16,4.19,16.16z"/>
	<path d="M32.97,5.04c3.06,0.02,5.56,2.54,5.55,5.59c-0.01,3.07-2.57,5.6-5.63,5.57c-3.06-0.03-5.55-2.57-5.53-5.62
		C27.39,7.52,29.92,5.02,32.97,5.04z M28.13,10.62c0,2.63,2.16,4.8,4.79,4.82c2.65,0.02,4.84-2.16,4.84-4.81
		c0-2.63-2.16-4.8-4.79-4.82C30.32,5.79,28.13,7.97,28.13,10.62z"/>
	<path d="M44.96,7.4c-0.86,0.01-1.6-0.73-1.59-1.59c0.01-0.84,0.72-1.56,1.56-1.56c0.86-0.01,1.6,0.73,1.59,1.59
		C46.51,6.68,45.8,7.39,44.96,7.4z M45.76,5.81c-0.01-0.45-0.39-0.81-0.84-0.8c-0.43,0.01-0.78,0.37-0.79,0.8
		c-0.01,0.45,0.36,0.83,0.81,0.83C45.39,6.63,45.76,6.26,45.76,5.81z"/>
	<path d="M35.32,10.61c0.01,1.3-1.1,2.4-2.39,2.39c-1.28-0.01-2.35-1.08-2.36-2.37c-0.01-1.3,1.1-2.4,2.39-2.39
		C34.24,8.26,35.31,9.33,35.32,10.61z M32.97,11.43c0.45-0.01,0.81-0.4,0.79-0.85c-0.02-0.43-0.38-0.78-0.81-0.78
		c-0.45,0-0.82,0.38-0.81,0.82C32.14,11.08,32.52,11.45,32.97,11.43z"/>
</g>
</svg>
