<?xml version="1.0" encoding="utf-8"?>
<!-- Generator: Adobe Illustrator 25.0.1, SVG Export Plug-In . SVG Version: 6.00 Build 0)  -->
<svg version="1.1" id="Calque_1" xmlns="http://www.w3.org/2000/svg" xmlns:xlink="http://www.w3.org/1999/xlink" x="0px" y="0px"
	 viewBox="0 0 43.8 49.3" style="enable-background:new 0 0 43.8 49.3;" xml:space="preserve">
<style type="text/css">
	.st0{fill:#4E4E4E;}
	.st1{opacity:0.4;}
	.st2{fill:#212121;}
	.st3{fill:#FFFFFF;}
</style>
<g id="background">
	<g>
		<path class="st0" d="M0.2,35c0,4.7,3.8,8.5,8.5,8.5h26.4c4.7,0,8.5-3.8,8.5-8.5V8.7c0-4.7-3.8-8.5-8.5-8.5H8.7
			C4,0.1,0.2,4,0.2,8.7V35z"/>
	</g>
</g>
<g id="VP">
	<g class="st1">
		<path class="st2" d="M38.8,23.7c0,0.4,0,0.8,0,1.2c-0.6,0-1.2,0-1.9,0c0-0.4,0-0.8,0-1.2c-0.2,0-0.3,0-0.4,0c-1.5,0-3.1,0-4.6,0
			c-0.2,0-0.4,0-0.6,0.1c-1.8,0.7-3.7,0.7-5.5,0c-0.2-0.1-0.3-0.1-0.5-0.1c-5.8,0-11.7,0-17.5,0c-0.1,0-0.2,0-0.3,0
			c0,0.4,0,0.8,0,1.2c-0.6,0-1.2,0-1.9,0c0-0.4,0-0.8,0-1.3c-0.2,0-0.4,0-0.6,0c-1.2,0-2-0.8-2-2c0-3.4,0-6.7,0-10.1
			c0-1.2,0.8-2,2.1-2c5.4,0,10.9,0,16.3,0c1.3,0,2.5,0,3.8,0c0.2,0,0.4,0,0.6-0.1c1.8-0.7,3.6-0.7,5.5,0c0.2,0.1,0.4,0.1,0.7,0.1
			c2.4,0,4.8,0,7.2,0c1.5,0,2.2,0.8,2.2,2.2c0,3.2,0,6.4,0,9.5c0,1.5-0.7,2.2-2.2,2.3C39,23.7,38.9,23.7,38.8,23.7z M24.4,22.4
			c-1.8-1.5-2.8-3.4-2.9-5.7c0-2.4,1-4.3,3-5.8c-0.2,0-0.4,0-0.5,0c-6.3,0-12.6,0-18.8,0c-0.8,0-0.9,0.2-0.9,0.9c0,3.2,0,6.4,0,9.6
			c0,0.8,0.2,1,1,1c6.2,0,12.5,0,18.7,0C24.2,22.4,24.3,22.4,24.4,22.4z M35,16.6c0-3.5-2.9-6.4-6.4-6.4c-3.5,0-6.4,2.9-6.4,6.4
			c0,3.5,2.9,6.4,6.4,6.4C32.1,23.1,35,20.2,35,16.6z M32.6,22.4c0.2,0,0.3,0,0.4,0c2.1,0,4.1,0,6.2,0c0.6,0,0.9-0.2,0.9-0.9
			c0-3.3,0-6.5,0-9.8c0-0.6-0.2-0.9-0.9-0.9c-2.1,0-4.1,0-6.2,0c-0.1,0-0.2,0-0.4,0c1.9,1.5,3,3.4,3,5.7
			C35.6,19,34.6,20.9,32.6,22.4z"/>
		<path class="st2" d="M16.4,12.9c0,0.2,0,0.4,0,0.6c-3.6,0-7.2,0-10.8,0c0-0.2,0-0.4,0-0.6C9.2,12.9,12.8,12.9,16.4,12.9z"/>
		<path class="st2" d="M16.4,14.1c0,0.2,0,0.4,0,0.6c-3.6,0-7.2,0-10.8,0c0-0.2,0-0.4,0-0.6C9.2,14.1,12.8,14.1,16.4,14.1z"/>
		<path class="st2" d="M16.4,15.4c0,0.2,0,0.4,0,0.6c-3.6,0-7.2,0-10.8,0c0-0.2,0-0.4,0-0.6C9.2,15.4,12.8,15.4,16.4,15.4z"/>
		<path class="st2" d="M16.4,16.7c0,0.2,0,0.3,0,0.5c-3.6,0-7.2,0-10.8,0c0-0.2,0-0.3,0-0.5C9.2,16.7,12.8,16.7,16.4,16.7z"/>
		<path class="st2" d="M5.6,18.5c0-0.2,0-0.4,0-0.6c3.6,0,7.2,0,10.8,0c0,0.2,0,0.4,0,0.6C12.8,18.5,9.2,18.5,5.6,18.5z"/>
		<path class="st2" d="M16.4,19.3c0,0.2,0,0.3,0,0.5c-3.6,0-7.2,0-10.8,0c0-0.2,0-0.3,0-0.5C9.2,19.3,12.8,19.3,16.4,19.3z"/>
		<path class="st2" d="M5.6,21.1c0-0.2,0-0.3,0-0.5c3.6,0,7.2,0,10.8,0c0,0.2,0,0.3,0,0.5C12.8,21.1,9.2,21.1,5.6,21.1z"/>
		<path class="st2" d="M28.6,12.2c2.4,0,4.4,2,4.4,4.5c0,2.5-2.1,4.5-4.5,4.4c-2.4,0-4.4-2.1-4.4-4.5C24.1,14.2,26.2,12.2,28.6,12.2
			z M24.7,16.7c0,2.1,1.7,3.8,3.8,3.8c2.1,0,3.9-1.7,3.9-3.8c0-2.1-1.7-3.8-3.8-3.8C26.5,12.8,24.7,14.5,24.7,16.7z"/>
		<path class="st2" d="M38.2,14.1c-0.7,0-1.3-0.6-1.3-1.3c0-0.7,0.6-1.2,1.2-1.2c0.7,0,1.3,0.6,1.3,1.3
			C39.4,13.5,38.8,14.1,38.2,14.1z M38.8,12.8c0-0.4-0.3-0.6-0.7-0.6c-0.3,0-0.6,0.3-0.6,0.6c0,0.4,0.3,0.7,0.6,0.7
			C38.5,13.5,38.8,13.2,38.8,12.8z"/>
		<path class="st2" d="M30.5,16.7c0,1-0.9,1.9-1.9,1.9c-1,0-1.9-0.9-1.9-1.9c0-1,0.9-1.9,1.9-1.9C29.6,14.8,30.5,15.6,30.5,16.7z
			 M28.6,17.3c0.4,0,0.6-0.3,0.6-0.7c0-0.3-0.3-0.6-0.6-0.6c-0.4,0-0.7,0.3-0.6,0.7C27.9,17,28.2,17.3,28.6,17.3z"/>
	</g>
	<g>
		<g>
			<path class="st3" d="M38.5,23.4c0,0.4,0,0.8,0,1.2c-0.6,0-1.2,0-1.9,0c0-0.4,0-0.8,0-1.2c-0.2,0-0.3,0-0.4,0c-1.5,0-3.1,0-4.6,0
				c-0.2,0-0.4,0-0.6,0.1c-1.8,0.7-3.7,0.7-5.5,0c-0.2-0.1-0.3-0.1-0.5-0.1c-5.8,0-11.7,0-17.5,0c-0.1,0-0.2,0-0.3,0
				c0,0.4,0,0.8,0,1.2c-0.6,0-1.2,0-1.9,0c0-0.4,0-0.8,0-1.3c-0.2,0-0.4,0-0.6,0c-1.2,0-2-0.8-2-2c0-3.4,0-6.7,0-10.1
				c0-1.2,0.8-2,2.1-2c5.4,0,10.9,0,16.3,0c1.3,0,2.5,0,3.8,0c0.2,0,0.4,0,0.6-0.1c1.8-0.7,3.6-0.7,5.5,0c0.2,0.1,0.4,0.1,0.7,0.1
				c2.4,0,4.8,0,7.2,0c1.5,0,2.2,0.8,2.2,2.2c0,3.2,0,6.4,0,9.5c0,1.5-0.7,2.2-2.2,2.3C38.7,23.4,38.6,23.4,38.5,23.4z M24.2,22.1
				c-1.8-1.5-2.8-3.4-2.9-5.7c0-2.4,1-4.3,3-5.8c-0.2,0-0.4,0-0.5,0c-6.3,0-12.6,0-18.8,0c-0.8,0-0.9,0.2-0.9,0.9c0,3.2,0,6.4,0,9.6
				c0,0.8,0.2,1,1,1c6.2,0,12.5,0,18.7,0C23.9,22.1,24,22.1,24.2,22.1z M34.7,16.4c0-3.5-2.9-6.4-6.4-6.4c-3.5,0-6.4,2.9-6.4,6.4
				c0,3.5,2.9,6.4,6.4,6.4C31.8,22.8,34.7,19.9,34.7,16.4z M32.3,22.1c0.2,0,0.3,0,0.4,0c2.1,0,4.1,0,6.2,0c0.6,0,0.9-0.2,0.9-0.9
				c0-3.3,0-6.5,0-9.8c0-0.6-0.2-0.9-0.9-0.9c-2.1,0-4.1,0-6.2,0c-0.1,0-0.2,0-0.4,0c1.9,1.5,3,3.4,3,5.7
				C35.3,18.7,34.3,20.6,32.3,22.1z"/>
			<path class="st3" d="M16.1,12.6c0,0.2,0,0.4,0,0.6c-3.6,0-7.2,0-10.8,0c0-0.2,0-0.4,0-0.6C8.9,12.6,12.5,12.6,16.1,12.6z"/>
			<path class="st3" d="M16.1,13.9c0,0.2,0,0.4,0,0.6c-3.6,0-7.2,0-10.8,0c0-0.2,0-0.4,0-0.6C8.9,13.9,12.5,13.9,16.1,13.9z"/>
			<path class="st3" d="M16.1,15.1c0,0.2,0,0.4,0,0.6c-3.6,0-7.2,0-10.8,0c0-0.2,0-0.4,0-0.6C8.9,15.1,12.5,15.1,16.1,15.1z"/>
			<path class="st3" d="M16.1,16.4c0,0.2,0,0.3,0,0.5c-3.6,0-7.2,0-10.8,0c0-0.2,0-0.3,0-0.5C8.9,16.4,12.5,16.4,16.1,16.4z"/>
			<path class="st3" d="M5.3,18.3c0-0.2,0-0.4,0-0.6c3.6,0,7.2,0,10.8,0c0,0.2,0,0.4,0,0.6C12.5,18.3,9,18.3,5.3,18.3z"/>
			<path class="st3" d="M16.1,19c0,0.2,0,0.3,0,0.5c-3.6,0-7.2,0-10.8,0c0-0.2,0-0.3,0-0.5C8.9,19,12.5,19,16.1,19z"/>
			<path class="st3" d="M5.3,20.8c0-0.2,0-0.3,0-0.5c3.6,0,7.2,0,10.8,0c0,0.2,0,0.3,0,0.5C12.5,20.8,9,20.8,5.3,20.8z"/>
			<path class="st3" d="M28.3,11.9c2.4,0,4.4,2,4.4,4.5c0,2.5-2.1,4.5-4.5,4.4c-2.4,0-4.4-2.1-4.4-4.5
				C23.9,13.9,25.9,11.9,28.3,11.9z M24.5,16.4c0,2.1,1.7,3.8,3.8,3.8c2.1,0,3.9-1.7,3.9-3.8c0-2.1-1.7-3.8-3.8-3.8
				C26.2,12.5,24.5,14.3,24.5,16.4z"/>
			<path class="st3" d="M37.9,13.8c-0.7,0-1.3-0.6-1.3-1.3c0-0.7,0.6-1.2,1.2-1.2c0.7,0,1.3,0.6,1.3,1.3
				C39.1,13.2,38.6,13.8,37.9,13.8z M38.5,12.5c0-0.4-0.3-0.6-0.7-0.6c-0.3,0-0.6,0.3-0.6,0.6c0,0.4,0.3,0.7,0.6,0.7
				C38.2,13.2,38.5,12.9,38.5,12.5z"/>
			<path class="st3" d="M30.2,16.4c0,1-0.9,1.9-1.9,1.9c-1,0-1.9-0.9-1.9-1.9c0-1,0.9-1.9,1.9-1.9C29.3,14.5,30.2,15.4,30.2,16.4z
				 M28.3,17c0.4,0,0.6-0.3,0.6-0.7c0-0.3-0.3-0.6-0.6-0.6c-0.4,0-0.7,0.3-0.6,0.7C27.7,16.7,28,17,28.3,17z"/>
		</g>
	</g>
</g>
<g id="logo">
	<g class="st1">
		<path class="st2" d="M28,35.3C28,35.3,28,35.3,28,35.3L28,35.3c-0.1-0.2-0.3-0.4-0.4-0.5c-0.2-0.1-0.4-0.2-0.5-0.3h-0.2
			c0,0,0,0,0,0h-0.5c0,0,0,0,0,0h-0.1c-0.2,0.1-0.4,0.2-0.6,0.3c-0.1,0.1-0.6,0.4-0.5,0.5h0c0,0,0,0,0,0h0c-0.2,0.3-0.3,0.6-0.4,0.9
			c0,0.1,0,0.1,0,0.2c0,0,0,0.1,0,0.1c0,0,0,0.1,0,0.1c0,0.1,0,0.2,0,0.2c0,0.1,0,0.2,0.1,0.2c0.1,0.2,0.2,0.4,0.4,0.5
			c0.2,0.1,0.4,0.2,0.6,0.3h0.2c0,0,0,0,0,0h0.4c0,0,0,0,0,0h0.2c0.4-0.2,0.9-0.4,1.2-0.8c0.1-0.2,0.2-0.3,0.3-0.5
			c0.1-0.2,0.1-0.3,0.1-0.5c0-0.1,0-0.1,0-0.2c0-0.1,0-0.2,0-0.2c0-0.1-0.1-0.2-0.1-0.2C28.1,35.4,28.1,35.4,28,35.3z M27.3,36.3
			c0,0.2-0.1,0.4-0.3,0.5c-0.2,0.2-0.3,0.3-0.5,0.4h-0.5c-0.4-0.2-0.6-0.6-0.5-1c0.1-0.2,0.1-0.4,0.3-0.5c0.2-0.2,0.3-0.3,0.5-0.4
			h0.2c0,0,0,0,0,0h0.1c0,0,0,0,0,0h0.2c0.2,0.1,0.4,0.2,0.4,0.4C27.3,35.9,27.3,36.1,27.3,36.3z M22.6,35.5c0-0.1-0.1-0.2-0.1-0.2
			h0c0,0,0,0,0,0c0-0.2-0.2-0.3-0.3-0.5h-0.1c-0.1-0.1-0.3-0.2-0.4-0.3h-0.2c0,0,0,0,0,0H21c0,0,0,0,0,0h-0.2
			c-0.2,0.1-0.3,0.2-0.4,0.3h0c0-0.1,0.1-0.1,0-0.2h-0.9c-0.1,0.1,0,0.2-0.1,0.2c0,0.1,0,0.2,0,0.3c0,0,0,0.1,0,0.1
			c0,0-0.1,0.1,0,0.1c0,0,0,0,0,0c0,0.2-0.1,0.3-0.1,0.5c0,0.2,0,0.3-0.1,0.5c0,0.2-0.1,0.3-0.1,0.5c0,0.1,0,0.1,0,0.2
			c0,0.1-0.1,0.1,0,0.2c0,0,0,0,0,0c0,0.1,0,0.2,0,0.2c0,0.1,0,0.1,0,0.2c0,0.2,0,0.3-0.1,0.5c0,0.2-0.1,0.3-0.1,0.5
			c0,0.3-0.1,0.6-0.1,1h0.9c0-0.2,0-0.3,0.1-0.5c0-0.1,0-0.2,0-0.2c0,0,0-0.1,0-0.1c0,0,0-0.1,0-0.1c0,0,0-0.1,0-0.1c0,0,0,0,0-0.1
			c0,0,0-0.1,0-0.1c0-0.1,0-0.2,0-0.2c0,0,0,0,0-0.1c0,0,0,0,0-0.1c0,0,0-0.1,0-0.1c0-0.1,0-0.2,0-0.2h0c0.1,0.2,0.3,0.2,0.4,0.3
			h0.2c0,0,0,0,0,0h0.4c0,0,0,0,0,0h0.2c0.2-0.1,0.6-0.2,0.6-0.3h0c0.2-0.1,0.3-0.3,0.4-0.4c0,0,0,0,0,0h0c0.1-0.2,0.2-0.3,0.2-0.5
			c0.1-0.2,0.1-0.3,0.1-0.5c0-0.1,0.1-0.3,0-0.5c0,0,0-0.1,0-0.1C22.6,35.6,22.6,35.6,22.6,35.5z M21.7,36.3
			c-0.1,0.2-0.1,0.4-0.3,0.5c-0.1,0.2-0.3,0.3-0.5,0.4h-0.2c0,0,0,0,0,0h0c0,0,0,0,0,0h-0.2c-0.4-0.2-0.5-0.6-0.4-1
			c0.1-0.4,0.4-0.7,0.7-0.9H21c0,0,0,0,0,0h0.1c0,0,0,0,0,0h0.2c0.2,0.1,0.3,0.2,0.4,0.4C21.7,35.9,21.7,36.1,21.7,36.3z M32.8,34.8
			c-0.1-0.2-0.3-0.3-0.4-0.3h-0.1c0,0,0,0,0,0h-0.4c0,0,0,0,0,0h-0.2c-0.2,0.1-0.4,0.2-0.5,0.3H31c0,0,0-0.1,0-0.1h0
			c-0.1-0.1-0.3-0.2-0.4-0.3h-0.4c-0.1,0.1-0.3,0.1-0.4,0.3h0c0-0.1,0-0.1,0-0.2h-0.9c0,0.1,0,0.1,0,0.2c0,0,0,0.1,0,0.1
			c0,0.1,0,0.1,0,0.2c0,0.1-0.1,0.1,0,0.2c0,0.1,0,0.1,0,0.2c0,0.1,0,0.1,0,0.2c0,0.1-0.1,0.2-0.1,0.3c0,0.1,0,0.2,0,0.3
			c0,0.1-0.1,0.2-0.1,0.3c0,0.1,0,0.2,0,0.4c0,0.1,0,0.1,0,0.2c0,0,0,0.1,0,0.1c0,0,0,0.1,0,0.1c0,0.1,0,0.2,0,0.3
			c0,0.1,0,0.2,0,0.3h0.9c0-0.1,0-0.1,0-0.2c0-0.1,0-0.1,0-0.2c0-0.1,0-0.2,0-0.4c0-0.2,0.1-0.5,0.1-0.7c0-0.2,0.1-0.5,0.1-0.7
			c0.1-0.3,0.2-0.5,0.5-0.6h0.1c0,0,0,0,0,0h0.1c0.1,0.2,0.1,0.5,0.1,0.7c0,0.2-0.1,0.4-0.1,0.7c0,0.2-0.1,0.4-0.1,0.7
			c0,0.1,0,0.2,0,0.3c0,0.1-0.1,0.2-0.1,0.3h0.9c0-0.1,0-0.2,0-0.3c0-0.1,0.1-0.2,0.1-0.3c0-0.1,0-0.2,0-0.3c0-0.1,0-0.1,0-0.2
			c0,0,0-0.1,0-0.1c0,0,0-0.1,0-0.1c0-0.1,0-0.2,0-0.3c0-0.1,0-0.2,0-0.3c0,0,0.1-0.1,0.1-0.2c0-0.1,0-0.1,0-0.2
			c0.1-0.1,0.2-0.2,0.3-0.3h0.2c0,0,0,0,0,0h0.1c0.2,0.1,0.2,0.1,0.2,0.3c0,0.1,0,0.2,0,0.3c0,0.1-0.1,0.2-0.1,0.4
			c0,0.1,0,0.2,0,0.3c0,0.1-0.1,0.2-0.1,0.4c0,0.1,0,0.2,0,0.4c0,0.1-0.1,0.2-0.1,0.3c0,0.1,0,0.2,0,0.3h0.9
			c0.1-0.1,0.1-0.3,0.1-0.3c0-0.1,0-0.2,0-0.3c0-0.1,0.1-0.2,0.1-0.3c0-0.1,0-0.2,0-0.3c0-0.2,0.1-0.5,0.1-0.7c0-0.2,0-0.4,0-0.7
			c0,0-0.1-0.2-0.1-0.2C32.9,35,32.8,34.9,32.8,34.8z M36,34.5c0,0.1,0,0.1,0,0.2h0c-0.1-0.1-0.3-0.2-0.4-0.3h-0.2c0,0,0,0,0,0h-0.4
			c0,0,0,0,0,0h-0.2c-0.1,0.1-0.5,0.1-0.5,0.3h-0.1c-0.1,0.1-0.2,0.2-0.3,0.2c-0.1,0.1-0.2,0.2-0.2,0.3h0c0,0.1-0.1,0.2-0.1,0.2
			c0,0.1-0.1,0.1-0.1,0.2c0,0.1,0,0.2-0.1,0.3c0,0.1-0.1,0.2-0.1,0.2c0,0.3,0,0.7,0.1,1c0,0,0,0,0,0c0.1,0.2,0.2,0.3,0.3,0.5h0
			c0.1,0.1,0.2,0.1,0.2,0.2c0.1,0,0.2,0.1,0.2,0.1h0.2c0,0,0,0,0,0h0.4c0,0,0,0,0,0H35c0.2-0.1,0.4-0.1,0.5-0.3h0c0,0.1,0,0.2,0,0.3
			h0.9c0-0.1,0-0.2,0-0.3c0.1-0.1,0-0.2,0-0.2c0,0,0-0.1,0-0.1c0,0,0-0.1,0-0.1c0,0,0,0,0,0h0c0,0,0-0.1,0-0.1c0,0,0-0.1,0-0.1
			c0,0,0-0.1,0-0.1c0,0,0-0.1,0-0.1c0,0,0-0.1,0-0.1c0,0,0-0.1,0-0.1c0,0,0-0.1,0-0.1c0,0,0-0.1,0-0.1c0,0,0-0.1,0-0.1
			c0-0.1,0-0.1,0-0.1c0-0.1,0-0.2,0-0.2c0,0,0-0.1,0-0.1c0,0,0-0.1,0-0.1c0-0.1,0-0.2,0-0.2c0-0.1,0-0.2,0-0.3c0,0,0-0.1,0-0.1
			c0,0,0.1-0.1,0-0.1c0-0.1,0-0.1,0-0.2H36z M35.8,36.2c0,0.2-0.1,0.4-0.2,0.5c-0.1,0.1-0.1,0.2-0.2,0.2c-0.1,0.1-0.2,0.1-0.3,0.2
			h-0.3c0,0,0,0,0,0h0c0,0,0,0,0,0h-0.2c-0.1-0.1-0.2-0.1-0.3-0.2c0,0,0-0.1,0-0.1c0,0-0.1-0.1-0.1-0.1c0-0.2,0-0.4,0-0.5
			c0.1-0.2,0.1-0.4,0.3-0.5c0.2-0.2,0.3-0.2,0.6-0.3h0.2c0.2,0.1,0.5,0.2,0.5,0.4C35.8,35.8,35.8,36,35.8,36.2z M24.8,34.5h-0.5
			c0-0.4,0.1-0.7,0.1-1.1h-0.9c0,0,0,0.1,0,0.1c0,0.1,0,0.1,0,0.1c0,0,0,0.1,0,0.1c0,0.1,0,0.1,0,0.1c0,0.1,0,0.2,0,0.3
			c0,0,0,0.1,0,0.1c0,0-0.1,0.1,0,0.1H23c-0.1,0.1,0,0.1,0,0.2c0,0.1,0,0.1,0,0.2c0,0.1-0.1,0.3-0.1,0.4h0.3c0,0.1,0,0.2,0,0.3
			c0,0.1,0,0.2,0,0.3c0,0.1-0.1,0.2-0.1,0.3c0,0.1,0,0.2,0,0.3c0,0.1,0,0.2,0,0.3c0,0,0,0,0,0.1c0,0,0,0.1,0,0.1c0,0.1,0,0.1,0,0.2
			c0,0.2-0.1,0.4-0.1,0.6h0.9c0-0.2,0.1-0.4,0.1-0.7c0-0.1,0-0.2,0-0.3c0-0.1,0-0.1,0-0.2c0-0.1,0-0.1,0-0.1c0-0.1,0-0.1,0-0.2
			c0-0.1,0-0.1,0-0.2c0-0.1,0-0.2,0.1-0.3c0-0.1,0-0.2,0.1-0.3c0-0.1,0-0.2,0-0.3h0.6C24.7,35.1,24.8,34.8,24.8,34.5z M18.9,35.3
			c0,0,0-0.1,0-0.1c0,0,0-0.1,0-0.1c0-0.1,0-0.1,0-0.2c0-0.2,0-0.3,0-0.4c0-0.3-0.2-0.6-0.4-0.9h0c0,0,0,0,0,0
			c-0.1-0.2-0.4-0.4-0.6-0.6c-0.2-0.1-0.5-0.2-0.7-0.3H17c0,0,0,0,0,0h-0.9c0,0,0,0,0,0h-0.2c-0.3,0.1-0.5,0.2-0.8,0.3
			c-0.1,0.1-0.3,0.1-0.4,0.2c-0.1,0.1-0.3,0.2-0.4,0.3h0c0,0,0,0,0,0h0c-0.1,0.2-0.3,0.3-0.4,0.4c0,0.1-0.1,0.1-0.1,0.2
			c0,0.1-0.1,0.1-0.1,0.2c0,0,0,0.1,0,0.1c0,0,0,0.1,0,0.1c0,0.1,0,0.1-0.1,0.2c0,0.1-0.1,0.3-0.1,0.4c0,0.2,0,0.3,0,0.4
			c0,0,0,0.1,0,0.1c0,0,0,0.1,0,0.1c0,0.1,0,0.2,0,0.2c0,0.1,0.1,0.2,0.1,0.2c0,0.1,0,0.2,0.1,0.2c0,0.1,0.1,0.1,0.1,0.2
			c0,0.1,0.1,0.1,0.1,0.2h0c0,0,0,0,0,0h0c0.3,0.5,0.8,0.7,1.4,0.9h0.2c0,0,0,0,0,0h0.7c0,0,0,0,0,0h0.2c0.3-0.1,0.6-0.2,0.8-0.3
			c0.1-0.1,0.3-0.1,0.4-0.2c0.1-0.1,0.3-0.2,0.4-0.3h0c0,0,0,0,0,0h0c0.1-0.1,0.1-0.1,0.2-0.2c0.1-0.1,0.1-0.2,0.2-0.2
			c0.1-0.1,0.2-0.3,0.3-0.4c0.1-0.1,0.1-0.3,0.2-0.4C18.9,35.6,18.9,35.5,18.9,35.3z M17.9,35.4c-0.1,0.4-0.3,0.8-0.6,1.1
			c-0.2,0.2-0.3,0.3-0.5,0.4c-0.2,0.1-0.4,0.1-0.5,0.2H16c0,0,0,0,0,0h-0.4c0,0,0,0,0,0h-0.2C15.2,37,15,37,14.9,36.8
			c-0.2-0.1-0.3-0.3-0.4-0.5c-0.1-0.3-0.2-0.7-0.1-1c0,0,0-0.1,0.1-0.1c0,0,0-0.1,0-0.1c0,0,0.1-0.1,0.1-0.1c0,0,0-0.1,0-0.1
			c0.1-0.2,0.2-0.4,0.4-0.5c0.2-0.2,0.3-0.3,0.5-0.4c0.2-0.1,0.4-0.2,0.5-0.2h0.2c0,0,0,0,0,0h0.6c0,0,0,0,0,0h0.2
			c0.2,0.1,0.4,0.2,0.5,0.3c0.2,0.2,0.3,0.3,0.4,0.5C18,34.7,17.9,35.1,17.9,35.4z M22.9,32C22.9,32,22.9,32,22.9,32l0.2,0
			c0,0,0,0,0,0h0.2c0,0,0,0,0,0h0.2c0,0,0.1,0,0.1,0.1h0.1c0,0,0,0,0-0.1h0c0,0,0,0,0,0h-0.1c0,0,0,0,0,0h-0.1c0,0,0,0,0,0h-0.1
			c0,0,0,0,0,0h-0.1c0,0,0,0,0,0h-0.1c0,0,0,0,0,0h-0.1c0,0,0,0,0,0H23c0,0,0,0,0,0h-0.1c0,0,0,0,0,0h-0.1c0,0,0,0,0,0h-0.1
			c0,0,0,0,0,0h-0.1c0,0,0,0,0,0h-0.1c0,0,0,0,0,0h-0.1c0,0,0,0,0,0h-0.1c-0.5-0.2-1-0.3-1.5-0.4h-0.2c0,0-0.1,0-0.1-0.1h-0.2
			c0,0,0,0,0,0h-0.2c0,0,0,0,0,0H20c0,0,0,0,0,0h-0.2c0,0,0,0,0,0h-0.2c0,0,0,0,0,0h-0.3c0,0,0,0,0,0h-0.2c0,0,0,0,0,0h-0.3
			c0,0,0,0,0,0h-0.3c0,0,0,0,0,0h-0.3c0,0,0,0,0,0h-0.3c0,0,0,0,0,0h-0.5c0,0,0,0,0,0h-0.5c0,0,0,0,0,0h-3c0,0,0,0,0,0h-0.4
			c0,0,0,0,0,0h-0.4c0,0,0,0,0,0h-0.3c0,0,0,0,0,0h-0.3c0,0,0,0,0,0h-0.3c0,0,0,0,0,0h-0.3c0,0,0,0,0,0h-0.2c0,0,0,0,0,0h-0.2
			c0,0,0,0,0,0h-0.2c0,0,0,0,0,0h-0.2c0,0,0,0,0,0h-0.2c0,0,0,0,0,0h-0.1c0,0,0,0,0,0h-0.2c0,0-0.1,0-0.1,0.1h-0.1
			c-0.2,0.1-0.5,0.1-0.7,0.2c-0.2,0.1-0.5,0.1-0.7,0.2H8.8c0,0,0,0,0,0H8.7c0,0,0,0,0,0H8.6c0,0,0,0,0,0H8.5c0,0,0,0,0,0H8.4
			c0,0,0,0,0,0H8.3c0,0,0,0,0,0H8.2c0,0,0,0,0,0H8.2c0,0,0,0,0,0H8.1c0,0,0,0,0,0H8c0,0,0,0,0,0H7.9c0,0,0,0,0,0H7.9c0,0,0,0,0,0
			H7.8c0,0,0,0,0,0h0c0,0,0,0,0,0H7.7c0,0,0,0-0.1,0.1h0c0,0,0,0-0.1,0.1h0c0,0.1-0.1,0.1-0.2,0.1c-0.1,0.1-0.1,0.1-0.2,0.2
			C7,32.7,7,32.8,7,33c0,0.3,0.2,0.5,0.4,0.7c0.4,0.4,1,0.5,1.5,0.7h0.2c0,0,0.1,0,0.1,0.1h0.3c0,0,0,0,0,0h0.1c0,0,0,0,0,0
			c0,0,0,0-0.1-0.1H9.5c-0.1-0.2-0.3-0.2-0.4-0.4c0,0-0.1-0.2-0.1-0.2c0-0.1,0-0.1,0.1-0.2c0.1-0.3,0.5-0.5,0.8-0.7
			c0.3-0.1,0.6-0.3,0.9-0.4c0.3-0.1,0.6-0.1,0.9-0.3h0.2c0,0,0.1,0,0.1-0.1h0.2c0,0,0.1,0,0.1-0.1h0.2c0,0,0,0,0,0h0.2c0,0,0,0,0,0
			h0.2c0,0,0,0,0,0h0.2c0,0,0,0,0,0h0.2c0,0,0,0,0,0h0.2c0,0,0,0,0,0h0.2c0,0,0,0,0,0H14c0,0,0,0,0,0h0.3c0,0,0,0,0,0h0.4
			c0,0,0,0,0,0H15c0,0,0,0,0,0h0.4c0,0,0,0,0,0h0.4c0,0,0,0,0,0h0.7c0,0,0,0,0,0h2.7c0,0,0,0,0,0H20c0,0,0,0,0,0h0.4c0,0,0,0,0,0
			h0.4c0,0,0,0,0,0h0.3c0,0,0,0,0,0h0.3c0,0,0,0,0,0h0.3c0,0,0,0,0,0h0.3c0,0,0,0,0,0h0.2c0,0,0,0,0,0h0.2c0,0,0,0,0,0h0.2
			c0,0,0,0,0,0H22.9z"/>
	</g>
	<g>
		
			<image style="overflow:visible;" width="800" height="243" xlink:href="../../../private/var/folders/7w/m6t8p_0x0gv7wl8r6cnrd57m0000gn/T/optoma-logo-huge.png"  transform="matrix(3.738207e-02 0 0 3.738207e-02 6.7137 30.2822)">
		</image>
	</g>
</g>
</svg>
